<svg width="128" height="128" viewBox="0 0 128 128" fill="none" xmlns="http://www.w3.org/2000/svg">
<path d="M38.4658 62.6903H40.0018V71.0683H42.5291V72.4646H38.4658V62.6903ZM45.4313 72.6042C44.6773 72.6042 44.1001 72.3901 43.6998 71.9619C43.2996 71.5337 43.0994 70.9286 43.0994 70.1467V65.0082C43.0994 64.2263 43.2996 63.6212 43.6998 63.193C44.1001 62.7648 44.6773 62.5507 45.4313 62.5507C46.1853 62.5507 46.7625 62.7648 47.1627 63.193C47.563 63.6212 47.7632 64.2263 47.7632 65.0082V70.1467C47.7632 70.9286 47.563 71.5337 47.1627 71.9619C46.7625 72.3901 46.1853 72.6042 45.4313 72.6042ZM45.4313 71.2079C45.9619 71.2079 46.2272 70.8868 46.2272 70.2444V64.9105C46.2272 64.2682 45.9619 63.947 45.4313 63.947C44.9007 63.947 44.6354 64.2682 44.6354 64.9105V70.2444C44.6354 70.8868 44.9007 71.2079 45.4313 71.2079ZM48.8019 62.6903H50.3378V71.0683H52.8652V72.4646H48.8019V62.6903ZM53.7848 68.3035L51.9277 62.6903H53.5614L54.6086 66.2789H54.6366L55.6838 62.6903H57.1779L55.3208 68.3035V72.4646H53.7848V68.3035Z" fill="black"/>
<path d="M21.0915 61.6483L4.64722 61.4803L63.6322 0.167969L92.9459 30.4042L94.0184 20.9974L112.071 18.9816L106.888 44.8504L123.332 61.6483H105.994L63.6322 15.2861L21.0915 61.6483Z" fill="#98CE94"/>
<path d="M53.345 58.4566L49.333 58.4089L63.6324 40.9868L70.8758 49.5785L71.1374 46.9056L75.5419 46.3328L74.2773 53.6835L78.2893 58.4566H74.0592L63.6324 45.3543L53.345 58.4566Z" fill="#98CE94" stroke="white" stroke-width="0.349081"/>
<path d="M21.2703 61.4803H4.64722L63.6322 128L123.153 61.6483L105.994 61.4803L63.6322 111.202L21.2703 61.4803Z" fill="#F9BE76"/>
<path d="M59.7 61.8163H57.9126L63.6324 71.5591L69.3521 61.8163H67.5647L63.6324 69.0394L59.7 61.8163Z" fill="#F9BE76"/>
<path d="M69.9245 62.6903H74.1135V64.0866H71.4605V66.6698H73.569V68.0662H71.4605V71.0683H74.1135V72.4646H69.9245V62.6903ZM74.9971 62.6903H76.9241L78.4181 68.5409H78.4461V62.6903H79.8145V72.4646H78.2366L76.3935 65.3294H76.3655V72.4646H74.9971V62.6903ZM82.1569 64.0866H80.5511V62.6903H85.2986V64.0866H83.6929V72.4646H82.1569V64.0866ZM86.5883 62.6903H88.6688L90.2606 72.4646H88.7246L88.4454 70.5237V70.5516H86.7L86.4207 72.4646H84.9965L86.5883 62.6903ZM88.2639 69.2251L87.5797 64.3938H87.5517L86.8815 69.2251H88.2639ZM92.9616 72.6042C92.2169 72.6042 91.6537 72.3948 91.2721 71.9759C90.8904 71.5477 90.6996 70.938 90.6996 70.1467V69.5882H92.1518V70.2584C92.1518 70.8914 92.4171 71.2079 92.9477 71.2079C93.2083 71.2079 93.4038 71.1334 93.5341 70.9845C93.6738 70.8262 93.7436 70.5749 93.7436 70.2305C93.7436 69.8209 93.6505 69.4625 93.4643 69.1553C93.2781 68.8388 92.9337 68.4618 92.431 68.0243C91.798 67.4658 91.3559 66.9631 91.1045 66.5163C90.8532 66.0601 90.7275 65.5481 90.7275 64.9803C90.7275 64.2077 90.923 63.6119 91.314 63.193C91.7049 62.7648 92.2728 62.5507 93.0175 62.5507C93.7529 62.5507 94.3068 62.7648 94.6791 63.193C95.0608 63.6119 95.2516 64.217 95.2516 65.0082V65.4132H93.7994V64.9105C93.7994 64.5754 93.7343 64.3333 93.6039 64.1844C93.4736 64.0261 93.2828 63.947 93.0314 63.947C92.5195 63.947 92.2635 64.2589 92.2635 64.8826C92.2635 65.2363 92.3566 65.5668 92.5427 65.8739C92.7382 66.1811 93.0873 66.5535 93.59 66.991C94.2323 67.5495 94.6745 68.0569 94.9165 68.513C95.1585 68.9691 95.2795 69.5044 95.2795 70.1188C95.2795 70.9193 95.0794 71.5337 94.6791 71.9619C94.2881 72.3901 93.7156 72.6042 92.9616 72.6042Z" fill="black"/>
<path d="M43.3276 74.2284H44.4795V81.5591H43.3276V74.2284ZM45.3423 74.2284H46.7875L47.908 78.6163H47.929V74.2284H48.9553V81.5591H47.7719L46.3895 76.2077H46.3686V81.5591H45.3423V74.2284ZM49.8115 74.2284H51.4557L52.1887 79.4751H52.2097L52.9427 74.2284H54.5869V81.5591H53.4978V76.0087H53.4768L52.639 81.5591H51.6756L50.8378 76.0087H50.8168V81.5591H49.8115V74.2284ZM57.1117 81.6638C56.5462 81.6638 56.1133 81.5032 55.8131 81.1821C55.5129 80.8609 55.3628 80.4071 55.3628 79.8207V75.9668C55.3628 75.3803 55.5129 74.9265 55.8131 74.6054C56.1133 74.2842 56.5462 74.1236 57.1117 74.1236C57.6772 74.1236 58.11 74.2842 58.4103 74.6054C58.7105 74.9265 58.8606 75.3803 58.8606 75.9668V79.8207C58.8606 80.4071 58.7105 80.8609 58.4103 81.1821C58.11 81.5032 57.6772 81.6638 57.1117 81.6638ZM57.1117 80.6166C57.5096 80.6166 57.7086 80.3757 57.7086 79.894V75.8935C57.7086 75.4118 57.5096 75.1709 57.1117 75.1709C56.7137 75.1709 56.5147 75.4118 56.5147 75.8935V79.894C56.5147 80.3757 56.7137 80.6166 57.1117 80.6166ZM59.6396 74.2284H61.378C61.9715 74.2284 62.4043 74.368 62.6766 74.6473C62.9489 74.9196 63.0851 75.3419 63.0851 75.9144V76.2077C63.0851 76.5847 63.0222 76.8919 62.8965 77.1292C62.7779 77.3666 62.5928 77.5377 62.3415 77.6424V77.6633C62.914 77.8588 63.2002 78.3685 63.2002 79.1923V79.8207C63.2002 80.3862 63.0501 80.819 62.7499 81.1192C62.4567 81.4125 62.0238 81.5591 61.4513 81.5591H59.6396V74.2284ZM61.2419 77.213C61.4723 77.213 61.6433 77.1537 61.7551 77.035C61.8737 76.9163 61.9331 76.7173 61.9331 76.4381V76.0296C61.9331 75.7643 61.8842 75.5723 61.7865 75.4536C61.6957 75.335 61.5491 75.2756 61.3466 75.2756H60.7916V77.213H61.2419ZM61.4513 80.5118C61.6538 80.5118 61.8039 80.4595 61.9017 80.3548C61.9994 80.243 62.0483 80.0545 62.0483 79.7892V79.1504C62.0483 78.8153 61.9889 78.5849 61.8702 78.4592C61.7585 78.3266 61.57 78.2603 61.3047 78.2603H60.7916V80.5118H61.4513ZM63.8736 74.2284H65.0256V81.5591H63.8736V74.2284ZM65.8883 74.2284H67.0403V80.5118H68.9358V81.5591H65.8883V74.2284ZM69.4882 74.2284H70.6402V81.5591H69.4882V74.2284ZM72.3931 74.2284H73.9535L75.1473 81.5591H73.9954L73.7859 80.1034V80.1244H72.4769L72.2674 81.5591H71.1992L72.3931 74.2284ZM73.6498 79.1295L73.1366 75.506H73.1157L72.613 79.1295H73.6498ZM75.7062 74.2284H77.4132C78.0067 74.2284 78.4395 74.368 78.7118 74.6473C78.9841 74.9196 79.1202 75.3419 79.1202 75.9144V76.3648C79.1202 77.1257 78.8689 77.6075 78.3662 77.8099V77.8309C78.6455 77.9147 78.841 78.0857 78.9527 78.344C79.0714 78.6024 79.1307 78.948 79.1307 79.3808V80.6689C79.1307 80.8784 79.1377 81.0494 79.1517 81.1821C79.1656 81.3077 79.2005 81.4334 79.2564 81.5591H78.0835C78.0416 81.4404 78.0136 81.3287 77.9997 81.224C77.9857 81.1192 77.9787 80.9307 77.9787 80.6585V79.318C77.9787 78.9829 77.9229 78.749 77.8112 78.6163C77.7065 78.4837 77.5214 78.4173 77.2561 78.4173H76.8582V81.5591H75.7062V74.2284ZM77.2771 77.3701C77.5075 77.3701 77.6785 77.3108 77.7902 77.1921C77.9089 77.0734 77.9683 76.8744 77.9683 76.5951V76.0296C77.9683 75.7643 77.9194 75.5723 77.8217 75.4536C77.7309 75.335 77.5843 75.2756 77.3818 75.2756H76.8582V77.3701H77.2771ZM79.93 74.2284H81.0819V81.5591H79.93V74.2284ZM82.8348 74.2284H84.3952L85.5891 81.5591H84.4371L84.2277 80.1034V80.1244H82.9186L82.7092 81.5591H81.641L82.8348 74.2284ZM84.0915 79.1295L83.5784 75.506H83.5574L83.0548 79.1295H84.0915Z" fill="black"/>
</svg>
