<svg width="357" height="381" viewBox="0 0 357 381" fill="none" xmlns="http://www.w3.org/2000/svg">
<path d="M107.64 185H112.04V209H119.28V213H107.64V185ZM127.594 213.4C125.434 213.4 123.78 212.787 122.634 211.56C121.487 210.333 120.914 208.6 120.914 206.36V191.64C120.914 189.4 121.487 187.667 122.634 186.44C123.78 185.213 125.434 184.6 127.594 184.6C129.754 184.6 131.407 185.213 132.554 186.44C133.7 187.667 134.274 189.4 134.274 191.64V206.36C134.274 208.6 133.7 210.333 132.554 211.56C131.407 212.787 129.754 213.4 127.594 213.4ZM127.594 209.4C129.114 209.4 129.874 208.48 129.874 206.64V191.36C129.874 189.52 129.114 188.6 127.594 188.6C126.074 188.6 125.314 189.52 125.314 191.36V206.64C125.314 208.48 126.074 209.4 127.594 209.4ZM137.249 185H141.649V209H148.889V213H137.249V185ZM151.524 201.08L146.204 185H150.884L153.884 195.28H153.964L156.964 185H161.244L155.924 201.08V213H151.524V201.08Z" fill="black"/>
<path d="M107.64 185H112.04V209H119.28V213H107.64V185ZM127.594 213.4C125.434 213.4 123.78 212.787 122.634 211.56C121.487 210.333 120.914 208.6 120.914 206.36V191.64C120.914 189.4 121.487 187.667 122.634 186.44C123.78 185.213 125.434 184.6 127.594 184.6C129.754 184.6 131.407 185.213 132.554 186.44C133.7 187.667 134.274 189.4 134.274 191.64V206.36C134.274 208.6 133.7 210.333 132.554 211.56C131.407 212.787 129.754 213.4 127.594 213.4ZM127.594 209.4C129.114 209.4 129.874 208.48 129.874 206.64V191.36C129.874 189.52 129.114 188.6 127.594 188.6C126.074 188.6 125.314 189.52 125.314 191.36V206.64C125.314 208.48 126.074 209.4 127.594 209.4ZM137.249 185H141.649V209H148.889V213H137.249V185ZM151.524 201.08L146.204 185H150.884L153.884 195.28H153.964L156.964 185H161.244L155.924 201.08V213H151.524V201.08Z" fill="black"/>
<path d="M149.223 174L138 173.858L178 122L198.262 147.574L198.994 139.617L211.315 137.913L207.777 159.792L219 174H207.167L178 135L149.223 174Z" fill="#98CE94" stroke="white"/>
<path d="M167 184H162L178 213L194 184H189L178 205.5L167 184Z" fill="#F9BE76"/>
<path d="M195.64 185H207.64V189H200.04V196.4H206.08V200.4H200.04V209H207.64V213H195.64V185ZM210.171 185H215.691L219.971 201.76H220.051V185H223.971V213H219.451L214.171 192.56H214.091V213H210.171V185ZM230.682 189H226.082V185H239.682V189H235.082V213H230.682V189ZM243.376 185H249.336L253.896 213H249.496L248.696 207.44V207.52H243.696L242.896 213H238.816L243.376 185ZM248.176 203.72L246.216 189.88H246.136L244.216 203.72H248.176ZM261.633 213.4C259.5 213.4 257.887 212.8 256.793 211.6C255.7 210.373 255.153 208.627 255.153 206.36V204.76H259.313V206.68C259.313 208.493 260.073 209.4 261.593 209.4C262.34 209.4 262.9 209.187 263.273 208.76C263.673 208.307 263.873 207.587 263.873 206.6C263.873 205.427 263.607 204.4 263.073 203.52C262.54 202.613 261.553 201.533 260.113 200.28C258.3 198.68 257.033 197.24 256.313 195.96C255.593 194.653 255.233 193.187 255.233 191.56C255.233 189.347 255.793 187.64 256.913 186.44C258.033 185.213 259.66 184.6 261.793 184.6C263.9 184.6 265.487 185.213 266.553 186.44C267.647 187.64 268.193 189.373 268.193 191.64V192.8H264.033V191.36C264.033 190.4 263.847 189.707 263.473 189.28C263.1 188.827 262.553 188.6 261.833 188.6C260.367 188.6 259.633 189.493 259.633 191.28C259.633 192.293 259.9 193.24 260.433 194.12C260.993 195 261.993 196.067 263.433 197.32C265.273 198.92 266.54 200.373 267.233 201.68C267.927 202.987 268.273 204.52 268.273 206.28C268.273 208.573 267.7 210.333 266.553 211.56C265.433 212.787 263.793 213.4 261.633 213.4Z" fill="black"/>
<path d="M121.23 219H124.53V240H121.23V219ZM127.001 219H131.141L134.351 231.57H134.411V219H137.351V240H133.961L130.001 224.67H129.941V240H127.001V219ZM139.804 219H144.514L146.614 234.03H146.674L148.774 219H153.484V240H150.364V224.1H150.304L147.904 240H145.144L142.744 224.1H142.684V240H139.804V219ZM160.717 240.3C159.097 240.3 157.857 239.84 156.997 238.92C156.137 238 155.707 236.7 155.707 235.02V223.98C155.707 222.3 156.137 221 156.997 220.08C157.857 219.16 159.097 218.7 160.717 218.7C162.337 218.7 163.577 219.16 164.437 220.08C165.297 221 165.727 222.3 165.727 223.98V235.02C165.727 236.7 165.297 238 164.437 238.92C163.577 239.84 162.337 240.3 160.717 240.3ZM160.717 237.3C161.857 237.3 162.427 236.61 162.427 235.23V223.77C162.427 222.39 161.857 221.7 160.717 221.7C159.577 221.7 159.007 222.39 159.007 223.77V235.23C159.007 236.61 159.577 237.3 160.717 237.3ZM167.959 219H172.939C174.639 219 175.879 219.4 176.659 220.2C177.439 220.98 177.829 222.19 177.829 223.83V224.67C177.829 225.75 177.649 226.63 177.289 227.31C176.949 227.99 176.419 228.48 175.699 228.78V228.84C177.339 229.4 178.159 230.86 178.159 233.22V235.02C178.159 236.64 177.729 237.88 176.869 238.74C176.029 239.58 174.789 240 173.149 240H167.959V219ZM172.549 227.55C173.209 227.55 173.699 227.38 174.019 227.04C174.359 226.7 174.529 226.13 174.529 225.33V224.16C174.529 223.4 174.389 222.85 174.109 222.51C173.849 222.17 173.429 222 172.849 222H171.259V227.55H172.549ZM173.149 237C173.729 237 174.159 236.85 174.439 236.55C174.719 236.23 174.859 235.69 174.859 234.93V233.1C174.859 232.14 174.689 231.48 174.349 231.12C174.029 230.74 173.489 230.55 172.729 230.55H171.259V237H173.149ZM180.087 219H183.387V240H180.087V219ZM185.859 219H189.159V237H194.589V240H185.859V219ZM196.171 219H199.471V240H196.171V219ZM204.493 219H208.963L212.383 240H209.083L208.483 235.83V235.89H204.733L204.133 240H201.073L204.493 219ZM208.093 233.04L206.623 222.66H206.563L205.123 233.04H208.093ZM213.984 219H218.874C220.574 219 221.814 219.4 222.594 220.2C223.374 220.98 223.764 222.19 223.764 223.83V225.12C223.764 227.3 223.044 228.68 221.604 229.26V229.32C222.404 229.56 222.964 230.05 223.284 230.79C223.624 231.53 223.794 232.52 223.794 233.76V237.45C223.794 238.05 223.814 238.54 223.854 238.92C223.894 239.28 223.994 239.64 224.154 240H220.794C220.674 239.66 220.594 239.34 220.554 239.04C220.514 238.74 220.494 238.2 220.494 237.42V233.58C220.494 232.62 220.334 231.95 220.014 231.57C219.714 231.19 219.184 231 218.424 231H217.284V240H213.984V219ZM218.484 228C219.144 228 219.634 227.83 219.954 227.49C220.294 227.15 220.464 226.58 220.464 225.78V224.16C220.464 223.4 220.324 222.85 220.044 222.51C219.784 222.17 219.364 222 218.784 222H217.284V228H218.484ZM226.084 219H229.384V240H226.084V219ZM234.405 219H238.875L242.295 240H238.995L238.395 235.83V235.89H234.645L234.045 240H230.985L234.405 219ZM238.005 233.04L236.535 222.66H236.475L235.035 233.04H238.005Z" fill="black"/>
</svg>
