<svg width="185" height="128" viewBox="0 0 185 128" fill="none" xmlns="http://www.w3.org/2000/svg">
<path d="M1.64 64H6.04V88H13.28V92H1.64V64ZM21.5938 92.4C19.4338 92.4 17.7804 91.7867 16.6338 90.56C15.4871 89.3333 14.9137 87.6 14.9137 85.36V70.64C14.9137 68.4 15.4871 66.6667 16.6338 65.44C17.7804 64.2133 19.4338 63.6 21.5938 63.6C23.7538 63.6 25.4071 64.2133 26.5538 65.44C27.7004 66.6667 28.2738 68.4 28.2738 70.64V85.36C28.2738 87.6 27.7004 89.3333 26.5538 90.56C25.4071 91.7867 23.7538 92.4 21.5938 92.4ZM21.5938 88.4C23.1138 88.4 23.8737 87.48 23.8737 85.64V70.36C23.8737 68.52 23.1138 67.6 21.5938 67.6C20.0738 67.6 19.3138 68.52 19.3138 70.36V85.64C19.3138 87.48 20.0738 88.4 21.5938 88.4ZM31.2494 64H35.6494V88H42.8894V92H31.2494V64ZM45.5238 80.08L40.2038 64H44.8838L47.8838 74.28H47.9638L50.9638 64H55.2438L49.9238 80.08V92H45.5238V80.08Z" fill="white"/>
<path d="M43.2229 53L32 52.8579L72 1L92.2621 26.5738L92.994 18.6175L105.315 16.9126L101.777 38.7924L113 53H101.167L72 14L43.2229 53Z" fill="#98CE94" stroke="#98CE94"/>
<path d="M61 63H56L72 92L88 63H83L72 84.5L61 63Z" fill="#F9BE76"/>
<path d="M89.64 64H101.64V68H94.04V75.4H100.08V79.4H94.04V88H101.64V92H89.64V64ZM104.171 64H109.691L113.971 80.76H114.051V64H117.971V92H113.451L108.171 71.56H108.091V92H104.171V64ZM124.682 68H120.082V64H133.682V68H129.082V92H124.682V68ZM137.376 64H143.336L147.896 92H143.496L142.696 86.44V86.52H137.696L136.896 92H132.816L137.376 64ZM142.176 82.72L140.216 68.88H140.136L138.216 82.72H142.176ZM155.633 92.4C153.5 92.4 151.887 91.8 150.793 90.6C149.7 89.3733 149.153 87.6267 149.153 85.36V83.76H153.313V85.68C153.313 87.4933 154.073 88.4 155.593 88.4C156.34 88.4 156.9 88.1867 157.273 87.76C157.673 87.3067 157.873 86.5867 157.873 85.6C157.873 84.4267 157.607 83.4 157.073 82.52C156.54 81.6133 155.553 80.5333 154.113 79.28C152.3 77.68 151.033 76.24 150.313 74.96C149.593 73.6533 149.233 72.1867 149.233 70.56C149.233 68.3467 149.793 66.64 150.913 65.44C152.033 64.2133 153.66 63.6 155.793 63.6C157.9 63.6 159.487 64.2133 160.553 65.44C161.647 66.64 162.193 68.3733 162.193 70.64V71.8H158.033V70.36C158.033 69.4 157.847 68.7067 157.473 68.28C157.1 67.8267 156.553 67.6 155.833 67.6C154.367 67.6 153.633 68.4933 153.633 70.28C153.633 71.2933 153.9 72.24 154.433 73.12C154.993 74 155.993 75.0667 157.433 76.32C159.273 77.92 160.54 79.3733 161.233 80.68C161.927 81.9867 162.273 83.52 162.273 85.28C162.273 87.5733 161.7 89.3333 160.553 90.56C159.433 91.7867 157.793 92.4 155.633 92.4Z" fill="white"/>
<path d="M15.23 98H18.53V119H15.23V98ZM21.0015 98H25.1415L28.3515 110.57H28.4115V98H31.3515V119H27.9615L24.0015 103.67H23.9415V119H21.0015V98ZM33.8042 98H38.5142L40.6142 113.03H40.6742L42.7742 98H47.4842V119H44.3642V103.1H44.3042L41.9042 119H39.1442L36.7442 103.1H36.6842V119H33.8042V98ZM54.7168 119.3C53.0968 119.3 51.8568 118.84 50.9968 117.92C50.1368 117 49.7068 115.7 49.7068 114.02V102.98C49.7068 101.3 50.1368 100 50.9968 99.08C51.8568 98.16 53.0968 97.7 54.7168 97.7C56.3368 97.7 57.5768 98.16 58.4368 99.08C59.2968 100 59.7268 101.3 59.7268 102.98V114.02C59.7268 115.7 59.2968 117 58.4368 117.92C57.5768 118.84 56.3368 119.3 54.7168 119.3ZM54.7168 116.3C55.8568 116.3 56.4268 115.61 56.4268 114.23V102.77C56.4268 101.39 55.8568 100.7 54.7168 100.7C53.5768 100.7 53.0068 101.39 53.0068 102.77V114.23C53.0068 115.61 53.5768 116.3 54.7168 116.3ZM61.9585 98H66.9385C68.6385 98 69.8785 98.4 70.6585 99.2C71.4385 99.98 71.8285 101.19 71.8285 102.83V103.67C71.8285 104.75 71.6485 105.63 71.2885 106.31C70.9485 106.99 70.4185 107.48 69.6985 107.78V107.84C71.3385 108.4 72.1585 109.86 72.1585 112.22V114.02C72.1585 115.64 71.7285 116.88 70.8685 117.74C70.0285 118.58 68.7885 119 67.1485 119H61.9585V98ZM66.5485 106.55C67.2085 106.55 67.6985 106.38 68.0185 106.04C68.3585 105.7 68.5285 105.13 68.5285 104.33V103.16C68.5285 102.4 68.3885 101.85 68.1085 101.51C67.8485 101.17 67.4285 101 66.8485 101H65.2585V106.55H66.5485ZM67.1485 116C67.7285 116 68.1585 115.85 68.4385 115.55C68.7185 115.23 68.8585 114.69 68.8585 113.93V112.1C68.8585 111.14 68.6885 110.48 68.3485 110.12C68.0285 109.74 67.4885 109.55 66.7285 109.55H65.2585V116H67.1485ZM74.0874 98H77.3874V119H74.0874V98ZM79.8589 98H83.1589V116H88.5889V119H79.8589V98ZM90.1714 98H93.4714V119H90.1714V98ZM98.4929 98H102.963L106.383 119H103.083L102.483 114.83V114.89H98.7329L98.1329 119H95.0729L98.4929 98ZM102.093 112.04L100.623 101.66H100.563L99.1229 112.04H102.093ZM107.984 98H112.874C114.574 98 115.814 98.4 116.594 99.2C117.374 99.98 117.764 101.19 117.764 102.83V104.12C117.764 106.3 117.044 107.68 115.604 108.26V108.32C116.404 108.56 116.964 109.05 117.284 109.79C117.624 110.53 117.794 111.52 117.794 112.76V116.45C117.794 117.05 117.814 117.54 117.854 117.92C117.894 118.28 117.994 118.64 118.154 119H114.794C114.674 118.66 114.594 118.34 114.554 118.04C114.514 117.74 114.494 117.2 114.494 116.42V112.58C114.494 111.62 114.334 110.95 114.014 110.57C113.714 110.19 113.184 110 112.424 110H111.284V119H107.984V98ZM112.484 107C113.144 107 113.634 106.83 113.954 106.49C114.294 106.15 114.464 105.58 114.464 104.78V103.16C114.464 102.4 114.324 101.85 114.044 101.51C113.784 101.17 113.364 101 112.784 101H111.284V107H112.484ZM120.084 98H123.384V119H120.084V98ZM128.405 98H132.875L136.295 119H132.995L132.395 114.83V114.89H128.645L128.045 119H124.985L128.405 98ZM132.005 112.04L130.535 101.66H130.475L129.035 112.04H132.005Z" fill="white"/>
</svg>
